<svg xmlns="http://www.w3.org/2000/svg" viewBox="-10 0 165 915">
  <defs/>
  <path d="M54.3 143.91c10.62-45.87-71.5.5-45 80 23.39 13.36 77.25-89.14 132-195-15.53 70.65-26.46 136.87-29 195M67.3 164.91l83-38" class="a"/>
  <path d="M59.3 222.91c7.54 48.48 3.35 112.36-6 183 98-42 67.21-144.54 8-77M134.3 356.91c-36-4-72.24 12.9-79 31M52.3 482.91c-6.24 43.74-.33 75.69 26 79 47-3 50-95 16-107-22-8-40 17-42 28 15.69 45.59 55 25 87-28M24.16 663.21c17-18.67 27.71-39.35 31.15-62.3-15.1 50-15.1 97.22 14.16 97.22 36.81-.94 39.64-49.08 33-92.5-.63 42-.95 85.9 17.93 96.28M72.04 721.91c-24.74 119-15.91 226.53 40.26 148.82M24.3 809.91c21.62-10.15 51.72-20.37 77.7-39.32" class="a"/>
</svg>
