<svg xmlns="http://www.w3.org/2000/svg" viewBox="0 0 470.54 229.09">
  <defs/>
  <defs>
    <style>
      .a{fill:none;stroke:#000;stroke-miterlimit:10;stroke-width:8px}
    </style>
  </defs>
  <path d="M54.3 143.91c10.62-45.87-71.5.5-45 80 23.39 13.36 77.25-89.14 132-195-15.53 70.65-26.46 136.87-29 195M67.3 164.91l92-42M156.3 35.91c7.54 48.48 3.35 112.36-6 183 98-42 67.21-144.54 8-77M231.3 169.91c-36-4-72.24 12.9-79 31" class="a"/>
  <path d="M233.3 144.91c-6.24 43.74-.33 75.69 26 79 47-3 50-95 16-107-22-8-40 17-42 28 15.69 45.59 58 31 90-22" class="a"/>
  <path d="M324.3 118.91c-15.1 50-15.1 97.22 14.16 97.22 36.81-.94 39.64-49.08 33-92.5-.63 42-1 85.9 17.93 96.28M427.04 49.91c-24.74 119-15.91 226.53 40.26 148.82M371.3 126.91c25 0 59.72-9.4 85.7-28.35" class="a"/>
</svg>
