<svg xmlns="http://www.w3.org/2000/svg" viewBox="0 0 1379.26 315.65">
  <defs/>
  <circle cx="1308.62" cy="284.28" r="14.5" class="a"/>
  <path d="M10.12 169.78c-27-84 60-179 93-163 3.61 73.18-17.41 176.46-46 289a328 328 0 00106-110c16.06 54.17 40.25 91 69 118-2.33-87.54 7.67-180.3 27-277-8.8 82.88 10.64 128.49 40 161M313.12 28.78l-19 280c4-116.4 13-184 63-179 47 9-32 259 47 150" class="a"/>
  <path d="M414.05 179.22c-20.39 41.91-28.32 115.56 14.73 129.13 85 18.12 71.36-257.13-14.73-129.13 2.27 115.56 92.88 21.56 120.07-52.11M789.68 185.63c-15.63 145.43-53.67 158.52-46.88 15.62l-4.81 28.85c-39.86 13.18-74.52-19.23-55.29-64.91 73.32-37.26 86.54 135.82-14.42 143-37.26 4.8-32.45-126.21 14.42-143M789.68 185.63l6 116.59c-6.44-194 67.55-116.77 54.09-3.61-6.84-155.36 64.78-148.7 56.49-10.82 0 20.44 21.88 15 34.86-12M1232.12 69.78c-113 110-130-65-34-63l-63 227c-18.67 55.15-38.14 82.22-59 60-24-34-14-131 42-94M1286.12 110.78c-71-130 153-104 69-13l-69 77c-27 28 11 58 59 14" class="a"/>
</svg>
