<svg xmlns="http://www.w3.org/2000/svg" viewBox="0 0 1875.68 361.17">
  <defs/>
  <defs>
    <style>
      .a,.b{fill:none;stroke:#000;stroke-width:10px}.a{stroke-miterlimit:10}.b{stroke-linejoin:bevel}
    </style>
  </defs>
  <path d="M143.37.77C123.88 126.49 84.9 286.33 84.9 286.33c-27.29 86.74-101.01 73.81-74.07-15.59M78.07 206.41l139.37-32.16M261.3 15.39c-64.84 101.16-76.35 213.55-57.5 332.34" class="a"/>
  <path d="M429.91 232.73c0 129.62-73.1 148.14-51.65 40-48.73 160.77-102.34 24.32-16.58-43.9-70.17 109.16-200.77 62.37-100.39 0 54.58-18.52 40 113-26.31 114-24.37-1-31.53-38.26-9.75-79.92M618.17 84.59c-50.69 155.89-129.35 352.19 7.67 236.93M517.59 246.52l108.24-52.85" class="b"/>
  <path d="M655.05 265.86c-26.15 27.82-45.81 78-7.8 89.67 61.4 7.79 78-99.41 42.88-103.31-77 0-49.7 125.72 60.43 31.19M910.06 248.14c-67.76-12.92-122.48 141 0 87.18" class="b"/>
  <path d="M938.68 257.14c-26.15 27.82-45.81 78-7.8 89.67 56.53 10.72 78-99.41 42.88-103.31-77 0-51.65 129.62 65.3 9.74" class="b"/>
  <path d="M1038.74 248.84l-11.65 92.41c16.2-60 19.92-88.4 44.57-87.12 46.68 5.77-15.07 122.84 37.83 69.46M1174.78 76.38c-49.75 153-126.95 345.67 7.53 232.54M1076.08 235.31l106.23-51.86" class="b"/>
  <path d="M1185.24 288.28c-9.21 38.81.89 61.4 25.34 59.45 43.44-10.22 46.78-93.56 11.69-90.64-64.32 9.75-41.91 103.31 28.27 38l1.94-18.52c-10.72 93.57 10.82 79.3 46.79 51.66M1352.87 264.89c-67.76-12.92-92.61 122.27 29.88 68.46M1449.62 81.25c-49.75 153-126.94 345.67 7.53 232.55M1360.66 223.61l106.24-51.86M1540.97 250.27v105.87c-10.16-75.39 46.59-161.78 37.27 0-4.24-105.88 61-140.61 40.66 0" class="b"/>
  <path d="M1646 311.26c36.17-2.87 83-36.43 56.75-44.9-63.52-16.09-107.57 155 44 48.28M1734.92 152.81c23.39-80.89 196.87-72.12 113 11.69l-61.4 62.38c-42.88 47.76-8.56 77.38 61.4 39" class="b"/>
  <circle cx="1810.45" cy="337.5" r="12.18" class="b"/>
</svg>
