<svg xmlns="http://www.w3.org/2000/svg" viewBox="-25 -10 145 1025">
  <defs/>
  <path d="M95.6 13.56C3.33-52.01-56.17 245.46 102.89 128.9M9.77 323.6l17.47-22.13v96.64c-5.85-105.68 66.35-156.89 50.08-2.33l19.8-12.81" class="a"/>
  <path d="M115.98 669.59c-37.21 53.15-34.42 6.5-25.9-76.81-54.48-8.93-67 32.16-67 32.16s11.61 22.32 66.1-23.23c-25 124.15-92 84-66.1 23.23M77.39 715.38c-62-35.63-106.89 178.16 20.14 54.23" class="b"/>
  <path d="M22.61 210.95c-5.78 40.54-.31 70.14 24.09 73.21 43.55-2.78 46.33-88 14.83-99.16-20.39-7.41-37.07 15.76-38.92 26 14.54 42.25 51 23.17 80.62-26M55.88 410.16C32.96 520.5 41.13 620.11 93.18 548.11M11.63 491.71c20-9.4 47.93-18.88 72-36.43M60.88 828.16c-22.92 110.34-14.75 210 37.3 137.94M16.63 909.71c20-9.4 47.93-18.88 72-36.43" class="a"/>
</svg>
