<svg xmlns="http://www.w3.org/2000/svg" viewBox="0 0 579.42 178.46">
  <defs/>
  <defs>
    <style>
      .a,.b{fill:none;stroke:#000;stroke-width:8px}.a{stroke-miterlimit:10}.b{stroke-linejoin:round}
    </style>
  </defs>
  <path d="M95.6 20.21c-92.27-65.57-151.77 231.9 7.29 115.34M189.24 52.76v113.31c-6.86-123.87 77.77-183.9 58.7-2.73l36.24-24.27" class="a"/>
  <path d="M428.24 151.76c-37.21 53.14-34.68 7-26.16-76.33-54.48-8.93-67 32.16-67 32.16s11.61 22.32 66.1-23.23c-25 124.15-92 84-66.1 23.23M489.39 78.03c-61.97-35.63-121.15 173.73 38.85 49.73" class="b"/>
  <path d="M104.61 89.6c-5.78 40.54-.31 70.14 24.09 73.21 43.55-2.78 46.33-88 14.83-99.16-20.39-7.41-37.07 15.76-38.92 25.95 14.54 42.25 55 22.27 84.63-26.84M291.88 5.81c-22.92 110.34-14.75 209.95 37.3 137.95M247.63 87.36c20-9.4 47.93-18.88 72-36.43M538.88.81c-22.92 110.34-14.75 209.95 37.3 137.95M494.63 82.36c20-9.4 47.93-18.88 72-36.43" class="a"/>
</svg>
