<svg xmlns="http://www.w3.org/2000/svg" id="Warstwa_2" data-name="Warstwa 2" viewBox="0 0 964.57 1031.07">
  <defs/>
  <path d="M1040.72 806.86c-39.39 49.25-62.56 121.35-67.15 219.64M1045.74 827.12c-4.31 25.64-8 44.81-5.23 58.84-10.47 35.1-15.34 90.94-19.49 149.43M1218.81 779c13.29 89.21 16.45 178.47 3.62 267.79" class="cls-1" transform="translate(-646.93 -18.19)"/>
  <path d="M1224.05 837.23c22 22 36.93 57.34 42.23 110.45l22.72 61.72 6.48 37.1M1066.87 865.65c-7.38 51-11.12 113.66-13.37 181.11M1198.34 856.51c10.87 48 9.58 77.7 3 99.29 2.42 26.32.6 57.48-3.25 91M865.9 519.68c-21.93-33.29-41.42-73.9-41.42-88.52" class="cls-1" transform="translate(-646.93 -18.19)"/>
  <path d="M744.89 293.1l13-81.21c1.62-16.25 0-21.12 0-26-1.63-11.37-2.35-11.89-6.5 0-2.21 8-1.63 8.12-8.12 29.23-11.37 26-15.29 69.92-30.86 117-11.58 6.35-25.54-6.26-40.61-27.61-3.62-5.51-8.76-10.25-14.62-14.62-6.35-4.82-9.74-1.62-6.5 4.87 13 27.09 28.07 50.36 47.11 66.6 30.86 55.22 17.87 105.58 142.93 168.92l13 13c23.23 22.39 58.21 43.16 97.45 63.34 39.37 19.29 72.84 45.82 99.08 81.22" class="cls-1" transform="translate(-646.93 -18.19)"/>
  <path d="M1081.93 883.52c-33.86-36.12-49.81-75.16-39-118.57-3.18-5.2-4.85-15.88-4.87-32.49a100.21 100.21 0 00-35.73-39c-9.67.41-15.21-4.65-19.49-11.37-16.73-9.85-31.77-23.08-45.48-39-16.36-6.9-30.36-19.41-42.22-37.32L874 587.9c-5.08-5.85-3.19-8.93 4.87-4.87L900 596c15.61 5.54 33.63 9 52.89 11.42" class="cls-1" transform="translate(-646.93 -18.19)"/>
  <path d="M899.37 595.63c23.4 13.37 42.17 27.94 54.24 44.25 11.85 18 26.28 25.79 42.23 27.61M1215.12 669.12c3.9-.41 7.1-2.72 9.74-6.5-3.39-5.73-1.73-9.66 1.63-13 8.93-15.57 19.44-29.89 32.48-42.24 7.25-7.61 31.06-14.45 58.47-21.11l8.13-3.25 13-13c5.69-7.31 10.56-5.69 4.87 3.24l-14.62 21.12c-6.37 17.59-17.4 30.41-34.1 37.36-4.28 13.82-13.44 27.33-26 40.6.24 9.74-7.92 17.16-22.74 22.74-5.26 4.42-12.18 17.43-19.49 32.49 1.22 15.32.62 29.69-6.5 40.61-3.27 34.47-10.78 67.38-26 97.45M1047.82 691.86c-4.67 8.66-8.72 16.86-9.75 22.74-2.86 3.73-2.42 5.65 0 6.49 14.73-1 19.1 8.09 21.12 19.49-4.07 4.93-9 6.5-14.62 4.88-6.5-9.75-1.63-17.87-6.5-24.37" class="cls-1" transform="translate(-646.93 -18.19)"/>
  <path d="M1206.18 679.67c8.29 3.87 16.45 13.72 24.37 35.74-11.41-4.48-19 .72-21.12 19.49 3.2 2.63 6.42 4.28 9.75 3.25 8.12-8.12 4.87-13 9.74-22.74M1515.77 171.28l9.58 18.68 1.65 22.74c4.48 43.23-13.83 93.76-43.85 147.81 1.39-13.79 1.18-29.16 0-45.48 15-31.68 29.79-59.75 43.85-76.34M1107.91 854.28c5.55 2.49 10.08 5.61 13 9.75a23.26 23.26 0 01-9.75 11.37c-.75 4.84 11.54 16 12.19 15.43-3.53 1.56-4.66 3.49-4.07 5.68h37.36c0-1.62-1-3-1.62-4.87 7.91-3.22 9.75-8.26 14.62-13-8.12-4.88-10.21-9-12.19-13.81 4.55-6.22 8.94-8.93 15.44-12.18-.33-4.63-5.67-11.21-11.37-13-13.65 6.63-27.54 10.3-44.67-.81-4.95 2.46-8.74 5.09-9.75 8.12-1.27 2.74-1.24 5.22.81 7.32z" class="cls-1" transform="translate(-646.93 -18.19)"/>
  <path d="M1107.91 854.28c2.58 6.08 3.57 13.17 3.25 21.12zM1169.64 878.65c-1.93-8.92-.28-17.54 3.25-26M1214.3 635.82a50.46 50.46 0 013.25-19.49c9-24.45 20-46.59 29.24-55.23 12.31-48.05 24.63-95.26 37.36-121.82 6.49-14.62 16.55-18.24 11.37-19.49-4.88-1.62-11.41 1.66-17.87 8.12-24.36 22.74-35.73 81.22-58.47 117-6.41 6.32-12.26 13-17.87 19.49-1.21 1.46-3.55 10.77-6.5 24.37-4.79 9.82-10 17.63-16.24 21.11-4.38-2.16-8.73-3.36-13-1.62l-6.5 4.87c-1.63 0-4.87-4.87-6.5 4.87l-9.74 3.25H1125l-26-1.62c-7-7.76-13.46-9.36-19.49-6.5a30.64 30.64 0 01-9.75-3.25c-8-7.4-14.08-21.27-19.49-37.36l-21.11-42.23-8.16-17.92c-3.29-11.26-6.89-23.2-9.75-35.73-3.59-14.22-7.69-28-14.62-39-6.49-13-13-9.75-8.12 4.87.51 10.24 3 22.44 1.63 34.11 3.58 23.21 10.78 50.54 19.49 79.59l13 47.1c5 13.65 13.4 29.3 22.74 35.74 4.67 4.46 6.49 10.83 4.87 19.49" class="cls-1" transform="translate(-646.93 -18.19)"/>
  <path d="M1246.79 561.1a207.92 207.92 0 0126-16.24c34-15.68 65.47-39.9 95.83-68.22 23-23.11 33-49.26 39-76.34l16.24-69.84c5.87-16.48 8.92-40 11.37-65 1.08-10.26.25-19.59-3.24-27.62l-6.5-29.23-16.24-48.73-19.5-35.73-34.11-43.86c-1.78-1.57 1.51-4.79 3.25-3.25a95.2 95.2 0 0122.74 14.62c4.28 12.66 11.32 27.08 19.49 42.23" class="cls-1" transform="translate(-646.93 -18.19)"/>
  <path d="M1381.6 91.69l-17.86-47.1c-3.37-8.76-6.79-17.28-11.37-21.12-2.13-2.34 1.62-4.87 8.12 0 11.2 7.78 20.18 25.19 29.23 42.23 7.34 10.78 15.77 28.39 24.37 47.11l22.74 40.6 11.37 26 4.87 13c12.6 18.61 24.59 30.42 35.73 32.49 9.75 1.62 29.24-24.36 29.24-30.86 1.42-8.18-1.29-20-4.87-32.49l-16.24-35.73c-3.25-14.62-11.37-45.48-9.75-48.73 4.87-4.87 8.12 9.75 11.37 19.49 4.39-1.86 11.37 19.49 24.36 39l13 17.86 8.12 13c21.5-24.34 29.31-57.15 27.61-95.83L1568.39 43l-3.25-13c-1.35-3 .32-3.59 3.25-3.25 3.95 3.91 6.95 7.73 8.12 11.37l9.75 22.74q2.52 9.24 4.87 17.87c1.95 13.8 1.71 28.52 0 43.85v9.75l-4.87 13-11.37 17.87-13 13 1.62 13 3.25 9.74-3.25 26" class="cls-1" transform="translate(-646.93 -18.19)"/>
  <path d="M1544 166.41c3.79 7.55 8.89 7.27 14.62 3.25 2.26-.82 3.47-.42 3.25 1.62v4.87" class="cls-1" transform="translate(-646.93 -18.19)"/>
  <path d="M1591.13 78.7c.29-2 2-1.82 4.88 0 10.3 20.41 12.19 42.58 13 65a50.67 50.67 0 01-6.5 17.86l-17.86 26-11.38 19.44-4.88 11.37c-2.59 77.69-30.69 143.21-87.71 194.91l-6.49 6.5c-25.4 47.54-63.37 86.66-112.08 118.57-15.33 12.38-29.23 27.62-39 35.74l-11.37 13" class="cls-1" transform="translate(-646.93 -18.19)"/>
  <path d="M1454.69 387.31c10.25-26.83 18.13-57.71 22.74-94.21 10 17.64 6.88 59 0 107.2M1019.39 590.34l-100.7-52c-30.25-26.17-62-63.91-94.21-105.57-1-15-1.79-31-4.87-35.74-3.72 0-3.43 8.24-3.25 16.24-15.57-25.42-24.67-53.62-27.61-84.46 27.61-24.36 56.85-78 78-147.8l42.23-66.6c3.25-9.75-1.36-11.86-8.12-4.87-7.8 12.27-15.82 22-24.36 26l6.5-14.61c4.88-13-1.62-13-9.74-3.25-11.88 14.77-39.92 79.39-65 134.81-7.59 17.63-13.82 38.93-19.49 61.72" class="cls-1" transform="translate(-646.93 -18.19)"/>
  <path d="M805 259c12.42-47.06 24.56-90.82 35.73-123.44 6.5-14.62-.56-17.29-9.74-4.88a112.53 112.53 0 00-15.91 33.69l-11.7 24.79 11.37-26c-3 2.89-1.63-4 0-11.37 1.62-8.12-1.63-9.75-4.88 0-11.37 24.36-8.12 27.61-13 50.35-6.42 20.58-16.13 44.36-27.61 69.84-4.88 14.62-9.75 21.12-24.37 21.12-8.24 86.76 13 149.43 73.09 183.54-2.39-23.69-3.39-45.44-1.62-63.35M727.49 274.6c-39.45-64.34-50.2-126.71-36.2-215.39C696.16 41.34 688 43 681.55 56c-43.86 118.57-13 201.41 36.8 256.45zM1101.66 894.34c2.19 38.72 78.53 30.6 73.88 1.36" class="cls-1" transform="translate(-646.93 -18.19)"/>
  <path d="M1060 707.29c4.4 6.64 11.86 11.78 16.24 35.73 18.84 6.22 25.25 12.17 30.86 16.24 6.05 18.25 7.34 41.85 4.88 53.6-18.52 13.27-30.69 25.86-30.87 68.22 3.25 14.62 18.94 12.82 39 14.62M1202.93 702.41c-4.57 8.45-9.42 15.88-11.37 34.11-9.37 3.7-18.13 9-24.36 21.12-4.71 17.37-5.66 35.82-3.25 55.22 13.39 6.06 15.76 13.47 27.61 29.24.36 16.31 4.58 34.55 1.63 40.61-5.15 10.38-18 14.39-37.36 13" class="cls-1" transform="translate(-646.93 -18.19)"/>
</svg>
