<svg xmlns="http://www.w3.org/2000/svg" viewBox="0 0 124.97 566.33">
  <defs/>
  <path d="M22.27 251.59c-6.24 43.74-.33 75.69 26 79 47-3 50-95 16-107-22-8-40 17-42 28 15.69 45.59 52 33 84-20M92.54.59c-9 60.75-4.06 142.24 7.09 221M20.45 119.95l68.54-1.18M3.91 2.95c14.75 65.83 23.44 152.24 10.63 210.37M6.27 340.41c13.22 31.45 21.78 66.86 23.22 108.36-5.75-40.91-9.29-91.33 10.83-99.07 23.22-1.55 25.47 47.41 24.77 99.07 0-39.48-1.55-92.88 17-99.07 29.41 0 15.48 94.42 37.15 99.07M20.49 513.99c28.16 7.81 54.88-2 62.86-18 4.49-9 4.49-18-6-24-82.33-28.44-83.82 170.63 44.9 52.39" class="a"/>
</svg>
