<svg xmlns="http://www.w3.org/2000/svg" viewBox="0 0 1645.96 725.57">
  <defs/>
  <defs>
    <style>
      .a{fill:none;stroke:#000;stroke-miterlimit:10;stroke-width:10px}
    </style>
  </defs>
  <path d="M126.5 146.01c-40.5 138.5-158.5 90.5-110-19 77.5-153.5 175.5-143.5 169-72l-39 341c16.92-170.27 82.5-381.5 128-372 27.5 5.5 14.95 112.6 0 174 104-208.55 137.83-217.25 103-30l-50 250c25.65-80.71 51-132.55 76-154-49.5 170.5 23.5 155.5 82 0-46.42 133.07-62.79 291.14-65 461 21-187.46 114-262.94 226-309M700.5 546.01l40-316c82.77-27.06 110.47 43.38-18 144" class="a"/>
  <path d="M805.5 279.01c16.14-10.29 28.2-26.11 38-45l-3 112c4.33-43.84 16.54-83.28 48-112 8.16 24 23.44 29.57 45 19q-36 73.62 14 86c38.88 4.39 52.85-30 60-75-16-44-59-43-77 0 23.49 58.3 69 9.29 116-47l-58 415c51.09-220.52 285.49-284.44 580-297" class="a"/>
  <path d="M1064.5 100.21c-8.91 2.73-12.36 9.42-15.92 17.27l-8.92 19.66 27.42 3.58c-7-19.93-14.86-39.55-23.3-58.94l-13 22.57c10.21 1.22 20.05-1.24 29.19-5.7L1037.5 85.7q.07 14.69-.37 29.36c-.25 7.85 7.07 15.36 15 15a15.3 15.3 0 0015-15q.45-14.69.37-29.36c-.07-12-12.53-17.85-22.58-12.95a26.86 26.86 0 01-5.79 1.81 45.59 45.59 0 01-8.25-.21c-5.07-.6-10.52 3.29-12.95 7.43-3 5.05-2.21 10.07 0 15.15 7.34 16.86 14.09 34.28 20.27 51.77 2 5.74 6.26 9.91 12.47 10.74 5.41.73 12.5-1.78 14.94-7.16l6.59-14.53 3.11-6.83c.51-1.14 1-2.29 1.55-3.42 1.94-4.18 1.18-.05-4.33 1.64 7.74-2.38 12.67-10.48 10.47-18.45-2.1-7.66-10.67-12.87-18.45-10.48z"/>
  <path d="M1069.5 275.01c50 14 75-58 35-51-55 30-50 141 40 66M1202.5 251.01c-51-62-126 143 51 44" class="a"/>
  <path d="M1292.5 86.01c-75.54 269.65-39 327 78 131 13-37-111 71 44 33 26-6 7 91-72 82-30 1 154.86-84.3 302-129M1216.5 224.01l117-70" class="a"/>
</svg>
