<svg xmlns="http://www.w3.org/2000/svg" viewBox="0 0 1379.02 574.08">
  <defs/>
  <path d="M87.02 340.08c-18 3-37 57-15 59 23 0 58-92 37-107-54-40-145 195-74 211 61 7 240-442 216-491-29-49-75 502-16 553" class="a"/>
  <path d="M107.02 404.08l145-94-19 148c9.08-95.75 27.08-146.08 60-151 26.82-2.91-5 148 8 140 26-19 34-122 51-131v129c9.56-83.47 30.14-136.91 59-129 16 5-7 126 6 124 11.07-2.4 13.18-19.64 23-31" class="a"/>
  <path d="M548.02 412.08c-41.66 59.5-38.54 7.27-29-86-61-10-75 36-75 36s13 25 74-26c-28 139-103 94-74 26" class="b"/>
  <path d="M698.02 14.08c-17.58 290.74 0 526-85 534M613.02 188.08c-8.27 13.81-26 23-34 7-26-54 51-177 119-186 161-4 216 223-10 248" class="a"/>
  <path d="M674.02 443.97c27.91-29 48.68-65.58 63-108.89-22.07 126.74-7 158 50 106" class="a"/>
  <path d="M722.21 301.54c.39.12 1.94 4.57 2.19 5.11l3.24 7.16 6.49 14.3c2.32 5.11 9.42 2.94 11-1.43q9.42-26.67 20.66-52.61c1.58-3.62-.12-9.63-5.18-9a31.66 31.66 0 01-18.07-2.75c-4-2-9 .38-9 5.18q-.08 14.34.36 28.66c.24 7.71 12.24 7.74 12 0q-.43-14.32-.36-28.66l-9 5.18a42.72 42.72 0 0024.13 4.39l-5.18-9q-11.89 27.36-21.87 55.47l11-1.43-8.92-19.66c-2.38-5.25-4.18-10.58-10.17-12.42-7.4-2.27-10.56 9.31-3.19 11.57z"/>
  <path d="M785.47 387.63c-25.7 69.31 51.37 110.66 72.67-29.52-58.48 53.87-72.67 29.52-72.67 29.52s11.78-46.62 73.19-39.56c-5.06 93.62-5.67 145.94 33.09 84.51 0 0 58.84-108.94 42.86-108.18-38.67 7.87-28.46 45.19 29.82 99.69 20.22 25.06-27.43 54.38-47.32 36.31-16.09-44.32 147.62-74.16 130.91-110.4-11.75-15.46-23-19.92-41.58-11-71.13 61.48-8.35 180.61 60.25 87.21" class="b"/>
  <path d="M1126.52 345.75c-85.12-60.29-84.27 219.48 31.5 56.52M1158.02 383.14c-2.18-39.94 45.59-86.32 60.78-80.45 30.4 13.4-1.85 80.44-60.78 94.7 70.62-31 41.12 126.55 101 28.49" class="a"/>
  <path d="M1370.02 426.08c-41.66 59.5-38.54 7.27-29-86-61-10-75 36-75 36s13 25 74-26c-28 139-103 94-74 26" class="b"/>
  <path d="M1158.02 454.08v-271" class="a"/>
</svg>
