<svg xmlns="http://www.w3.org/2000/svg" viewBox="-10 -10 493.22 249.63">
  <defs/>
  <path d="M105.26 123.9c-4.21 29.55-.22 51.13 17.56 53.37 31.75-2 33.78-64.17 10.81-72.28-14.86-5.4-27 11.48-28.37 18.91 10.6 30.8 57.13 15.78 78.74-20M189 144.9c16.62 5.07 32.38-1.29 37.09-11.66 2.65-5.83 2.65-11.65-3.53-15.54-48.57-18.46-49.46 110.76 26.49 34M45.41 5.04c-6 99.3 0 179.66-29 182.39" class="a"/>
  <path d="M16.38 64.47c-2.83 4.72-8.88 7.86-11.61 2.39C-4.11 48.42 22.19 6.41 45.41 3.34 127-3.1 123 84.9 43 102.9M43 141.9c8.53-9.3 13-24 25-35l-6 70c3.69-24.38 10.3-43.93 22-55 9.08 6.1 16.83 6.27 22-5M467 194.9c-127.47 1.27-293.74-47.12-314 34l31-125M280 122.9c-44-20-49 91 29 18M337 44.9c-41.89 114.14-45.34 166.6 31 95" class="a"/>
  <path d="M294 115.9c25.14-3.41 50.12-18.94 75-42M366 141.9c15-12 30-40 14-47 0 0-18 30 0 31 43 6 12 54-18 41-16-19 64.94-42.58 111-46" class="b"/>
  <path d="M174.83 69.35c2.37 1 3.82 6.6 4.84 8.85l4.06 9c1.16 2.55 4.71 1.47 5.48-.72q6.11-17.26 13.38-34.06c.8-1.83-.07-4.78-2.59-4.52a21.93 21.93 0 01-12.07-1.88 3 3 0 00-4.51 2.59q0 9.22.23 18.44c.12 3.86 6.12 3.87 6 0q-.27-9.21-.23-18.44l-4.51 2.59A27.69 27.69 0 00200 53.9l-2.59-4.51q-7.61 17.51-14 35.5l5.49-.72-5.69-12.53c-1.31-2.9-2.26-6.06-5.37-7.42-3.5-1.54-6.56 3.63-3 5.18z"/>
</svg>
