<svg xmlns="http://www.w3.org/2000/svg" viewBox="0 0 1645.96 725.57">
  <defs/>
  <path d="M126.5 146.01c-40.5 138.5-158.5 90.5-110-19 77.5-153.5 175.5-143.5 169-72l-39 341c16.92-170.27 82.5-381.5 128-372 27.5 5.5 14.95 112.6 0 174 104-208.55 137.83-217.25 103-30l-50 250c25.65-80.71 51-132.55 76-154-49.5 170.5 23.5 155.5 82 0-46.42 133.07-62.79 291.14-65 461 21-187.46 114-262.94 226-309M700.5 546.01l40-316c82.77-27.06 110.47 43.38-18 144" class="a"/>
  <path d="M805.5 279.01c16.14-10.29 28.2-26.11 38-45l-3 112c4.33-43.84 16.54-83.28 48-112 8.16 24 23.44 29.57 45 19q-36 73.62 14 86c38.88 4.39 52.85-30 60-75-16-44-59-43-77 0 23.49 58.3 69 9.29 116-47l-58 415c51.09-220.52 285.49-284.44 580-297" class="a"/>
  <path d="M1067.3 110.33c-5.75 1.77-7.38 7.45-9.65 12.45l-8.91 19.66 8.22 1.08q-10.1-28.62-22.23-56.44l-3.89 6.77a42.21 42.21 0 0023.89-4.27l-6.77-3.88q.07 14.69-.37 29.36c-.18 5.79 8.82 5.79 9 0q.45-14.69.37-29.36c0-3.6-3.76-5.36-6.78-3.89a33.83 33.83 0 01-19.34 3c-3.79-.45-5.06 4.07-3.88 6.78q11.63 26.75 21.32 54.28c1.15 3.26 6.49 4.9 8.23 1.07l6.59-14.53 3.1-6.83c.6-1.32 1.93-6.13 3.5-6.61 5.52-1.69 3.16-10.38-2.4-8.68z" class="c" />
  <path d="M1069.5 275.01c50 14 75-58 35-51-55 30-50 141 40 66M1202.5 251.01c-51-62-126 143 51 44" class="a"/>
  <path d="M1292.5 86.01c-75.54 269.65-39 327 78 131 13-37-111 71 44 33 26-6 7 91-72 82-30 1 154.86-84.3 302-129M1216.5 224.01l117-70" class="a"/>
</svg>
